<svg xmlns="http://www.w3.org/2000/svg" xmlns:xlink="http://www.w3.org/1999/xlink" width="512" height="512" viewBox="0 0 135.46668 135.46667"><defs><linearGradient id="d"><stop offset="0" style="stop-color:#000;stop-opacity:0"/><stop offset="1" style="stop-color:#fff;stop-opacity:.49799198"/></linearGradient><linearGradient id="c"><stop offset="0" style="stop-color:#ffff50;stop-opacity:0"/><stop offset="1" style="stop-color:#fff;stop-opacity:.49799198"/></linearGradient><linearGradient id="g"><stop offset="0" style="stop-color:#fff;stop-opacity:1"/><stop offset="1" style="stop-color:#82ffff;stop-opacity:0"/></linearGradient><linearGradient id="h"><stop offset="0" style="stop-color:#000;stop-opacity:.94779116"/><stop offset="1" style="stop-color:#013c3c;stop-opacity:.29803923"/></linearGradient><linearGradient id="i"><stop offset="0" style="stop-color:#1195c0;stop-opacity:1"/><stop offset="1" style="stop-color:#032936;stop-opacity:1"/></linearGradient><linearGradient id="f"><stop offset="0" style="stop-color:#f5860b;stop-opacity:1"/><stop offset="1" style="stop-color:#fece01;stop-opacity:1"/></linearGradient><linearGradient id="b"><stop offset="0" style="stop-color:#01ffff;stop-opacity:1"/><stop offset="1" style="stop-color:#01ffff;stop-opacity:0"/></linearGradient><linearGradient id="a"><stop offset="0" style="stop-color:#34fffa;stop-opacity:1"/><stop offset="1" style="stop-color:#34fffa;stop-opacity:0"/></linearGradient><linearGradient id="e"><stop offset="0" style="stop-color:#f5860b;stop-opacity:1"/><stop offset="1" style="stop-color:#f0c209;stop-opacity:1"/></linearGradient><linearGradient xlink:href="#c" id="r" x1="-424.69128" x2="-424.69128" y1="80.432289" y2="169.1783" gradientTransform="translate(-181.615)" gradientUnits="userSpaceOnUse"/><linearGradient xlink:href="#d" id="q" x1="-424.69128" x2="-424.69128" y1="80.432289" y2="169.1783" gradientTransform="translate(-181.85)" gradientUnits="userSpaceOnUse"/><linearGradient xlink:href="#e" id="p" x1="270.91376" x2="270.91376" y1="-159.96452" y2="-174.12389" gradientTransform="translate(-1856.173 639.832) scale(5.26961)" gradientUnits="userSpaceOnUse"/><linearGradient xlink:href="#f" id="n" x1="-137.52164" x2="-2.0549774" y1="-167.10789" y2="-167.10789" gradientTransform="rotate(-90 -121.57 221.406)" gradientUnits="userSpaceOnUse"/><linearGradient xlink:href="#g" id="m" x1="-317.19952" x2="-267.91589" y1="218.83279" y2="218.83279" gradientUnits="userSpaceOnUse"/><linearGradient xlink:href="#h" id="l" x1="-374.57663" x2="-374.57663" y1="199.65962" y2="229.46385" gradientTransform="translate(-181.85)" gradientUnits="userSpaceOnUse"/><linearGradient xlink:href="#i" id="j" x1="-395.96716" x2="-260.50101" y1="169.62552" y2="169.62552" gradientTransform="translate(128.66 -664.233) scale(.90876)" gradientUnits="userSpaceOnUse"/><filter id="o" width="1.0063242" height="1.0062953" x="-0.0031621052" y="-0.0031476418"><feGaussianBlur stdDeviation="0.55497801"/></filter><filter id="y" width="1.1194942" height="1.1216234" x="-0.059747112" y="-0.060811702"><feGaussianBlur stdDeviation="1.1337268"/></filter><filter id="k" width="1.2019388" height="1.2004645" x="-0.10096941" y="-0.100229"><feGaussianBlur stdDeviation="0.7604168"/></filter><filter id="v" width="1.5112426" height="1.5112426" x="-0.25562131" y="-0.25562131"><feGaussianBlur stdDeviation="4.0243692"/></filter><filter id="w" width="1.5416375" height="1.5468973" x="-0.27081877" y="-0.27344867"><feGaussianBlur stdDeviation="6.7142687"/></filter><filter id="x" width="1.3298444" height="1.3233845" x="-0.16492219" y="-0.16169224"><feGaussianBlur stdDeviation="4.7837903"/></filter><radialGradient xlink:href="#a" id="u" cx="134.2001" cy="-145.23039" r="5.3495221" fx="134.2001" fy="-145.23039" gradientTransform="translate(-1532.996 912.598) scale(8.05027)" gradientUnits="userSpaceOnUse"/><radialGradient xlink:href="#a" id="t" cx="134.2001" cy="-145.23039" r="5.3495221" fx="134.2001" fy="-145.23039" gradientTransform="translate(-1559.423 912.598) scale(8.05027)" gradientUnits="userSpaceOnUse"/><radialGradient xlink:href="#b" id="s" cx="121.43864" cy="-122.04922" r="23.866806" fx="121.43864" fy="-122.04922" gradientTransform="matrix(7.65577 0 0 1.71597 -1395.228 -23.731)" gradientUnits="userSpaceOnUse"/></defs><g transform="translate(577.818 -101.892)"><rect width="123.10638" height="123.10686" x="-231.17871" y="-571.6377" ry="0" style="opacity:1;fill:url(#j);fill-opacity:1;stroke-width:8.02889;stroke-linecap:round;stroke-linejoin:round" transform="rotate(-90)"/><path d="m-537.385 218.056-19.047-38.16-18.834 38.16z" style="opacity:1;fill:#64b4ff;fill-opacity:1;stroke:#00d4ff;stroke-width:4;stroke-linecap:round;stroke-linejoin:round;stroke-miterlimit:4;stroke-dasharray:none;stroke-opacity:1;filter:url(#k)"/><path d="M426.963 6.133V108.57h-313.75v2h315.75V6.133Zm81.293 18.232v146.916h-51.447v2h53.447V24.365ZM92.46 62.375v236.271H23.71v2h70.75V62.375Zm334.502 68.607v297.414h-313.75v2h315.75V130.982Zm81.293 63.747v138.55h-53.447v2h55.447V194.73ZM92.46 320.646v171.5H23.71v2h70.75v-173.5zm416.502 31.25v143.5h-56.75v2h58.75v-145.5zm-171 101v42.5h-222.75v2h224.75v-44.5zm89 0v42.5h-64.75v2h66.75v-44.5z" style="opacity:.333333;fill:#000005;fill-opacity:1;stroke:none;stroke-width:13.8232;stroke-linecap:round;stroke-linejoin:round;stroke-miterlimit:4;stroke-dasharray:none;stroke-opacity:1" transform="matrix(.26458 0 0 .26458 -579.091 101.892)"/><path d="M-549.137 102.985v27.633h83.013v-27.633zm90.38 4.824v39.401h14.142v-39.4zm-114.59 10.057v63.043h18.72v-63.043zm24.21 18.153v79.22h83.013v-79.22zm90.38 16.866v37.187h14.142v-37.187zm-114.59 33.316v45.905h18.72V186.2zm113.375 8.268v38.497h15.544v-38.497zm-89.165 27.252v11.245h59.465V221.72zm65.352 0v11.245h17.661V221.72z" style="opacity:.333333;fill:#000;fill-opacity:.55;stroke:none;stroke-width:3.65739;stroke-linecap:round;stroke-linejoin:round;stroke-miterlimit:4;stroke-dasharray:none;stroke-opacity:1"/><path d="m-537.385 218.056-19.047-38.16-18.834 38.16z" style="fill:url(#l);fill-opacity:1;stroke:#fff;stroke-width:2.3;stroke-linecap:butt;stroke-linejoin:miter;stroke-miterlimit:4;stroke-dasharray:none;stroke-opacity:1"/><path d="M-389.247 218.459h121.721v.748h-121.721z" style="opacity:1;fill:url(#m);fill-opacity:1;stroke:none;stroke-width:9.39245;stroke-linecap:round;stroke-linejoin:round;stroke-miterlimit:4;stroke-dasharray:none;stroke-opacity:1;filter:url(#filter87692)" transform="matrix(1 0 0 1.67873 -181.85 -148.533)"/><path d="M-577.817 101.892V237.36h135.466V101.892Zm31.652 6.323h78.792c10.36 0 18.7 8.338 18.7 18.699v85.423c0 10.36-8.34 18.7-18.7 18.7h-85.423c-10.36 0-18.699-8.34-18.699-18.7v-78.792h1.688a23.592 23.592 0 0 0 23.642-23.642z" style="opacity:1;fill:#d33f05;fill-opacity:1;stroke:none;stroke-width:8.99999;stroke-linecap:round;stroke-linejoin:round;stroke-miterlimit:4;stroke-dasharray:none;stroke-dashoffset:0;stroke-opacity:1"/><path d="M-577.817 101.892V237.36h135.466V101.892Zm29.252 3.923h81.192c11.69 0 21.099 9.41 21.099 21.099v85.423c0 11.69-9.41 21.1-21.099 21.1h-85.423a21.052 21.052 0 0 1-21.099-21.1v-81.192h4.089a21.196 21.196 0 0 0 21.241-21.242z" style="fill:#fff481;fill-opacity:1;stroke:none;stroke-width:8.99999;stroke-linecap:round;stroke-linejoin:round;stroke-miterlimit:4;stroke-dasharray:none;stroke-dashoffset:0;stroke-opacity:1"/><path d="M-577.817 101.892V237.36h135.466V101.892H-549.57Zm28.252 2.923h82.192a22.05 22.05 0 0 1 22.099 22.099v85.423a22.05 22.05 0 0 1-22.099 22.099h-85.423a22.05 22.05 0 0 1-22.099-22.099v-82.192h5.088a20.197 20.197 0 0 0 20.242-20.242z" style="fill:url(#n);fill-opacity:1;stroke:none;stroke-width:8.99999;stroke-linecap:round;stroke-linejoin:round;stroke-miterlimit:4;stroke-dasharray:none;stroke-dashoffset:0;stroke-opacity:1"/><path d="M1273.522 92.96a15.963 15.963 0 0 0-11.323 4.706l-195.55 195.55a15.978 15.978 0 0 0 0 22.645l195.55 195.553a15.978 15.978 0 0 0 22.645 0l195.55-195.553a16.092 16.092 0 0 0 2.772-3.718v-15.205a16.102 16.102 0 0 0-2.771-3.721L1284.844 97.666a15.964 15.964 0 0 0-11.322-4.705zm0 13.22c.648 0 1.296.249 1.793.746l195.822 195.818a2.534 2.534 0 0 1 0 3.59l-195.822 195.82a2.531 2.531 0 0 1-3.588 0l-195.819-195.82a2.534 2.534 0 0 1 0-3.59l195.819-195.818a2.531 2.531 0 0 1 1.794-.746z" style="opacity:.266026;fill:#000;fill-opacity:1;stroke:none;stroke-width:13.7089;stroke-linecap:round;stroke-linejoin:round;stroke-miterlimit:4;stroke-dasharray:none;stroke-dashoffset:0;stroke-opacity:1;filter:url(#o)" transform="matrix(.26458 0 0 .26458 -834.772 80.433)"/><rect width="74.614243" height="74.614243" x="-503.16968" y="-277.73267" ry="0.67125392" style="fill:url(#p);fill-opacity:1;stroke:none;stroke-width:5.2696;stroke-linecap:round;stroke-linejoin:round;stroke-miterlimit:4;stroke-dasharray:none;stroke-dashoffset:0;stroke-opacity:1" transform="rotate(-45)"/><path fill="none" d="M-572.162 218.688h121.681v1.098h-121.681z" style="opacity:1;fill:#fff;fill-opacity:0;stroke-width:14.8714;stroke-linecap:round;stroke-linejoin:round"/><path d="M-577.817 101.892v55.152a98.685 44.373 0 0 0 67.733 12.134 98.685 44.373 0 0 0 67.733-12.134v-55.152z" style="opacity:.333333;fill:url(#q);fill-opacity:1;stroke:none;stroke-width:4.36179;stroke-linecap:round;stroke-linejoin:round;stroke-miterlimit:4;stroke-dasharray:none;stroke-opacity:1"/><path d="m-500.254 104.193-1.569 1.569 1.593 1.594L-553.876 161l1.57 1.569 53.05-53.051h.005a.81.81 0 0 1 .592-.257.81.81 0 0 1 .59.257h.004l52.291 52.29 1.57-1.568-52.887-52.885.833-.833-1.568-1.57-.833.834z" style="fill:#fee10b;fill-opacity:1;stroke:none;stroke-width:6.67382;stroke-linecap:round;stroke-linejoin:round;stroke-miterlimit:4;stroke-dasharray:none;stroke-dashoffset:0;stroke-opacity:1"/><path d="M-499.421 103.428a4.223 4.223 0 0 0-2.996 1.245l-51.74 51.74a4.227 4.227 0 0 0 0 5.99l51.74 51.74a4.227 4.227 0 0 0 5.992 0l51.74-51.74a4.227 4.227 0 0 0 0-5.99l-51.74-51.74a4.223 4.223 0 0 0-2.996-1.245zm0 3.497c.172 0 .343.066.474.198l51.811 51.81a.67.67 0 0 1 0 .95l-51.81 51.81a.67.67 0 0 1-.95 0l-51.81-51.81a.67.67 0 0 1 0-.95l51.81-51.81a.67.67 0 0 1 .475-.198z" style="fill:#000;fill-opacity:1;stroke:none;stroke-width:3.62714;stroke-linecap:round;stroke-linejoin:round;stroke-miterlimit:4;stroke-dasharray:none;stroke-dashoffset:0;stroke-opacity:1"/><path d="m-499.185 106.648-52.76 52.76 6.81 6.811a98.685 44.373 0 0 0 35.286 2.96 98.685 44.373 0 0 0 62.952-10.242z" style="opacity:.333333;fill:url(#r);fill-opacity:1;stroke:none;stroke-width:4.36179;stroke-linecap:round;stroke-linejoin:round;stroke-miterlimit:4;stroke-dasharray:none;stroke-opacity:1"/><path d="m-499.185 106.648-52.76 52.76 6.81 6.811a98.685 44.373 0 0 0 35.286 2.96 98.685 44.373 0 0 0 62.952-10.242z" style="opacity:.333333;fill:#ffe600;fill-opacity:1;stroke:none;stroke-width:4.36179;stroke-linecap:round;stroke-linejoin:round;stroke-miterlimit:4;stroke-dasharray:none;stroke-opacity:1"/><rect width="53.325024" height="15.968778" x="-493.23401" y="-239.71223" ry="0" style="fill:#fee10b;fill-opacity:1;stroke:none;stroke-width:.00121588;stroke-linecap:round;stroke-linejoin:round;stroke-miterlimit:4;stroke-dasharray:none;stroke-dashoffset:0;stroke-opacity:1" transform="rotate(-45)"/><rect width="53.325024" height="15.968778" x="-492.18433" y="-241.14816" ry="0" style="fill:#000;fill-opacity:1;stroke:none;stroke-width:.00121588;stroke-linecap:round;stroke-linejoin:round;stroke-miterlimit:4;stroke-dasharray:none;stroke-dashoffset:0;stroke-opacity:1" transform="rotate(-45)"/><rect width="48.148335" height="10.792" x="-489.59592" y="-238.55984" ry="0" style="fill:url(#s);fill-opacity:1;stroke:none;stroke-width:4.16145;stroke-linecap:round;stroke-linejoin:round;stroke-miterlimit:4;stroke-dasharray:none;stroke-dashoffset:0;stroke-opacity:1" transform="rotate(-45)"/><rect width="15.968778" height="15.968778" x="-487.84454" y="-263.54501" ry="0" style="fill:#fee10b;fill-opacity:1;stroke:none;stroke-width:.000665362;stroke-linecap:round;stroke-linejoin:round;stroke-miterlimit:4;stroke-dasharray:none;stroke-dashoffset:0;stroke-opacity:1" transform="rotate(-45)"/><rect width="15.968778" height="15.968778" x="-487.05997" y="-264.53079" ry="0" style="fill:#000;fill-opacity:1;stroke:none;stroke-width:.000665362;stroke-linecap:round;stroke-linejoin:round;stroke-miterlimit:4;stroke-dasharray:none;stroke-dashoffset:0;stroke-opacity:1" transform="rotate(-45)"/><rect width="10.792" height="10.792" x="-484.47162" y="-261.94241" ry="0" style="fill:url(#t);fill-opacity:1;stroke:none;stroke-width:1.97017;stroke-linecap:round;stroke-linejoin:round;stroke-miterlimit:4;stroke-dasharray:none;stroke-dashoffset:0;stroke-opacity:1" transform="rotate(-45)"/><rect width="15.968778" height="15.968778" x="-461.38892" y="-263.48416" ry="0" style="fill:#fee10b;fill-opacity:1;stroke:none;stroke-width:.000665362;stroke-linecap:round;stroke-linejoin:round;stroke-miterlimit:4;stroke-dasharray:none;stroke-dashoffset:0;stroke-opacity:1" transform="rotate(-45)"/><rect width="15.968778" height="15.968778" x="-460.63385" y="-264.53079" ry="0" style="fill:#000;fill-opacity:1;stroke:none;stroke-width:.000665362;stroke-linecap:round;stroke-linejoin:round;stroke-miterlimit:4;stroke-dasharray:none;stroke-dashoffset:0;stroke-opacity:1" transform="rotate(-45)"/><rect width="10.792" height="10.792" x="-458.04544" y="-261.94241" ry="0" style="fill:url(#u);fill-opacity:1;stroke:none;stroke-width:1.97017;stroke-linecap:round;stroke-linejoin:round;stroke-miterlimit:4;stroke-dasharray:none;stroke-dashoffset:0;stroke-opacity:1" transform="rotate(-45)"/><circle cx="-382.23706" cy="111.1563" r="18.892178" style="opacity:.602564;fill:#ff0;fill-opacity:1;stroke-width:8.83499;stroke-linecap:round;stroke-linejoin:round;filter:url(#v)" transform="matrix(.59657 0 0 .59657 -334.295 50.4)"/><path d="M477.55 18.133a31.893 31.893 0 0 0-27.609 16.02c22.056 4.252 39.485 21.15 44.52 42.91a31.893 31.893 0 0 0 14.982-27.038 31.893 31.893 0 0 0-31.892-31.892Z" style="opacity:.474359;fill:#ffffbe;fill-opacity:1;stroke-width:14.9147;stroke-linecap:round;stroke-linejoin:round;filter:url(#w)" transform="matrix(.26458 0 0 .26458 -579.357 99.679)"/><path d="M495.936 442.055c-.306 29.935-23.484 54.18-52.97 56.181a39.032 39.032 0 0 0 30.583 14.825 39.032 39.032 0 0 0 39.033-39.034 39.032 39.032 0 0 0-16.646-31.972z" style="opacity:.342949;fill:#fff056;fill-opacity:1;stroke-width:18.2537;stroke-linecap:round;stroke-linejoin:round;filter:url(#x)" transform="matrix(.26458 0 0 .26458 -579.357 99.679)"/><g style="font-size:66.0307px;font-family:Pusab;fill:#fff;stroke-width:1.65077;filter:url(#y)" transform="translate(-418.236 68.575) scale(.32818)"><path d="M-445.93 123.197c-3.751 0-7.441.334-11.004 1.006-2.26.437-3.814 1.384-4.724 3.04-1.012 1.868-1.363 8.085-1.363 18.593 0 10.893.534 17.332 1.986 19.121 1.041 1.352 2.647 2.153 4.707 2.51 1.049.208 2.773.346 5.016.412 1.784.066 3.01.175 3.453-.268l-.577.266c4.331-.338 7.384-1.54 8.588-3.846.696-1.245.973-3.106.907-5.404 0-.98-.028-1.435-.05-2.008.34.675.672 1.334 1.13 2.442l1.775 4.535c1.16 3.015 3.917 4.424 7.941 4.283 2.647-.066 4.583-.198 5.745-.334l.02-.002h-.016c3.12-.306 4.916-2.042 4.916-5.002 0-.604-.079-1.336-.291-2.191-.9-4.04-2.975-7.845-6.036-11.473 3.5-2.285 5.336-5.863 5.336-10.768 0-9.984-7.469-14.912-21.515-14.912zm6.082 40.834-.004.014.016-.027c-.003.005-.01.008-.012.013zm-21.187.926c-.004-.005-.012-.007-.016-.012l.02.024c-.002-.002-.002-.01-.004-.012zm27.252-29.5h.006l1.058.066c1.457.098 2.12.794 2.12 2.522 0 1.626-.984 2.541-3.766 2.719-2.822.172-4.014-.823-4.113-2.758-.054-1.232.3-1.862 1.158-2.223l.014-.006.013-.006c.669-.308 1.786-.442 3.51-.314z" style="fill:#fff"/></g><g style="font-size:66.0307px;font-family:Pusab;fill:#000;stroke-width:1.65077"><path d="M-439.855 158.646c0-1.52 0-2.51-.066-2.972-.066-.99.066-1.519.33-1.519.462 0 1.32 1.52 2.575 4.557l1.783 4.556c.99 2.575 3.301 3.83 7.065 3.697 2.641-.066 4.556-.198 5.679-.33 2.707-.264 4.094-1.65 4.094-4.094 0-.528-.066-1.188-.264-1.98-.925-4.16-3.038-8.122-6.405-11.886 3.763-2.047 5.678-5.547 5.678-10.565 0-9.31-6.867-13.998-20.601-13.998h-5.943c-3.698 0-7.33.33-10.83.99-2.046.396-3.367 1.255-4.093 2.575-.858 1.585-1.255 7.66-1.255 18.159 0 10.895.595 17.102 1.783 18.554.859 1.123 2.245 1.85 4.16 2.18.99.197 2.641.33 4.886.395 1.783.066 2.708.066 2.774 0 4.226-.33 6.867-1.452 7.857-3.367.595-1.057.859-2.707.793-4.952zm10.169-20.602c0 2.245-1.52 3.434-4.623 3.632-3.235.198-4.952-1.057-5.084-3.632-.066-1.519.462-2.575 1.717-3.103.858-.397 2.179-.529 3.962-.397l1.056.066c1.981.132 2.972 1.255 2.972 3.434z" style="fill:#000" transform="translate(-418.236 68.575) scale(.32818)"/></g></g></svg>